<svg viewBox="0 0 330 200" xmlns="http://www.w3.org/2000/svg"><g><g><g><g><g><line x1="31.59375" y1="159.92600845601515" x2="26.59375" y2="159.92600845601515" style="visibility: inherit;" fill="rgb(0, 0, 0)" stroke="rgb(204, 204, 204)" stroke-width="1px"></line><line x1="31.59375" y1="143.6485518086163" x2="26.59375" y2="143.6485518086163" style="visibility: inherit;" fill="rgb(0, 0, 0)" stroke="rgb(204, 204, 204)" stroke-width="1px"></line><line x1="31.59375" y1="127.37109516121747" x2="26.59375" y2="127.37109516121747" style="visibility: inherit;" fill="rgb(0, 0, 0)" stroke="rgb(204, 204, 204)" stroke-width="1px"></line><line x1="31.59375" y1="111.09363851381863" x2="26.59375" y2="111.09363851381863" style="visibility: inherit;" fill="rgb(0, 0, 0)" stroke="rgb(204, 204, 204)" stroke-width="1px"></line><line x1="31.59375" y1="94.8161818664198" x2="26.59375" y2="94.8161818664198" style="visibility: inherit;" fill="rgb(0, 0, 0)" stroke="rgb(204, 204, 204)" stroke-width="1px"></line><line x1="31.59375" y1="78.53872521902095" x2="26.59375" y2="78.53872521902095" style="visibility: inherit;" fill="rgb(0, 0, 0)" stroke="rgb(204, 204, 204)" stroke-width="1px"></line><line x1="31.59375" y1="62.26126857162211" x2="26.59375" y2="62.26126857162211" style="visibility: inherit;" fill="rgb(0, 0, 0)" stroke="rgb(204, 204, 204)" stroke-width="1px"></line><line x1="31.59375" y1="45.983811924223275" x2="26.59375" y2="45.983811924223275" style="visibility: inherit;" fill="rgb(0, 0, 0)" stroke="rgb(204, 204, 204)" stroke-width="1px"></line><line x1="31.59375" y1="29.706355276824418" x2="26.59375" y2="29.706355276824418" style="visibility: inherit;" fill="rgb(0, 0, 0)" stroke="rgb(204, 204, 204)" stroke-width="1px"></line><line x1="31.59375" y1="13.428898629425582" x2="26.59375" y2="13.428898629425582" style="visibility: inherit;" fill="rgb(0, 0, 0)" stroke="rgb(204, 204, 204)" stroke-width="1px"></line></g><g transform="translate(21.59375, 0)"><text x="0" y="159.92600845601515" dx="0em" dy="0.3em" style="text-anchor: end; visibility: inherit; font-family: Roboto, sans-serif; font-size: 12px; font-weight: 200;" fill="rgb(33, 33, 33)" stroke="none" stroke-width="1px">0</text><text x="0" y="143.6485518086163" dx="0em" dy="0.3em" style="text-anchor: end; visibility: hidden; font-family: Roboto, sans-serif; font-size: 12px; font-weight: 200;" fill="rgb(33, 33, 33)" stroke="none" stroke-width="1px">10</text><text x="0" y="127.37109516121747" dx="0em" dy="0.3em" style="text-anchor: end; visibility: inherit; font-family: Roboto, sans-serif; font-size: 12px; font-weight: 200;" fill="rgb(33, 33, 33)" stroke="none" stroke-width="1px">20</text><text x="0" y="111.09363851381863" dx="0em" dy="0.3em" style="text-anchor: end; visibility: hidden; font-family: Roboto, sans-serif; font-size: 12px; font-weight: 200;" fill="rgb(33, 33, 33)" stroke="none" stroke-width="1px">30</text><text x="0" y="94.8161818664198" dx="0em" dy="0.3em" style="text-anchor: end; visibility: inherit; font-family: Roboto, sans-serif; font-size: 12px; font-weight: 200;" fill="rgb(33, 33, 33)" stroke="none" stroke-width="1px">40</text><text x="0" y="78.53872521902095" dx="0em" dy="0.3em" style="text-anchor: end; visibility: hidden; font-family: Roboto, sans-serif; font-size: 12px; font-weight: 200;" fill="rgb(33, 33, 33)" stroke="none" stroke-width="1px">50</text><text x="0" y="62.26126857162211" dx="0em" dy="0.3em" style="text-anchor: end; visibility: inherit; font-family: Roboto, sans-serif; font-size: 12px; font-weight: 200;" fill="rgb(33, 33, 33)" stroke="none" stroke-width="1px">60</text><text x="0" y="45.983811924223275" dx="0em" dy="0.3em" style="text-anchor: end; visibility: hidden; font-family: Roboto, sans-serif; font-size: 12px; font-weight: 200;" fill="rgb(33, 33, 33)" stroke="none" stroke-width="1px">70</text><text x="0" y="29.706355276824418" dx="0em" dy="0.3em" style="text-anchor: end; visibility: inherit; font-family: Roboto, sans-serif; font-size: 12px; font-weight: 200;" fill="rgb(33, 33, 33)" stroke="none" stroke-width="1px">80</text><text x="0" y="13.428898629425582" dx="0em" dy="0.3em" style="text-anchor: end; visibility: hidden; font-family: Roboto, sans-serif; font-size: 12px; font-weight: 200;" fill="rgb(33, 33, 33)" stroke="none" stroke-width="1px">90</text></g><line x1="31.59375" y1="0" x2="31.59375" y2="176" fill="rgb(0, 0, 0)" stroke="rgb(204, 204, 204)" stroke-width="1px"></line></g></g><g transform="translate(31, 0)" clip-path="url(#clip_0)"><clipPath id="clip_0"><rect width="298" height="176"></rect></clipPath><g><g><g><line x1="18.427205766950333" y1="0" x2="18.427205766950333" y2="176" fill="rgb(0, 0, 0)" stroke="rgb(66, 66, 66)" stroke-width="1px" opacity="0.25"></line><line x1="39.71302795410156" y1="0" x2="39.71302795410156" y2="176" fill="rgb(0, 0, 0)" stroke="rgb(66, 66, 66)" stroke-width="1px" opacity="0.25"></line><line x1="60.99885014125279" y1="0" x2="60.99885014125279" y2="176" fill="rgb(0, 0, 0)" stroke="rgb(66, 66, 66)" stroke-width="1px" opacity="0.25"></line><line x1="82.28467232840401" y1="0" x2="82.28467232840401" y2="176" fill="rgb(0, 0, 0)" stroke="rgb(66, 66, 66)" stroke-width="1px" opacity="0.25"></line><line x1="103.57049451555524" y1="0" x2="103.57049451555524" y2="176" fill="rgb(0, 0, 0)" stroke="rgb(66, 66, 66)" stroke-width="1px" opacity="0.25"></line><line x1="124.85631670270648" y1="0" x2="124.85631670270648" y2="176" fill="rgb(0, 0, 0)" stroke="rgb(66, 66, 66)" stroke-width="1px" opacity="0.25"></line><line x1="146.1421388898577" y1="0" x2="146.1421388898577" y2="176" fill="rgb(0, 0, 0)" stroke="rgb(66, 66, 66)" stroke-width="1px" opacity="0.25"></line><line x1="167.42796107700892" y1="0" x2="167.42796107700892" y2="176" fill="rgb(0, 0, 0)" stroke="rgb(66, 66, 66)" stroke-width="1px" opacity="0.25"></line><line x1="188.71378326416016" y1="0" x2="188.71378326416016" y2="176" fill="rgb(0, 0, 0)" stroke="rgb(66, 66, 66)" stroke-width="1px" opacity="0.25"></line><line x1="209.99960545131137" y1="0" x2="209.99960545131137" y2="176" fill="rgb(0, 0, 0)" stroke="rgb(66, 66, 66)" stroke-width="1px" opacity="0.25"></line><line x1="231.2854276384626" y1="0" x2="231.2854276384626" y2="176" fill="rgb(0, 0, 0)" stroke="rgb(66, 66, 66)" stroke-width="1px" opacity="0.25"></line><line x1="252.57124982561385" y1="0" x2="252.57124982561385" y2="176" fill="rgb(0, 0, 0)" stroke="rgb(66, 66, 66)" stroke-width="1px" opacity="0.25"></line><line x1="273.85707201276506" y1="0" x2="273.85707201276506" y2="176" fill="rgb(0, 0, 0)" stroke="rgb(66, 66, 66)" stroke-width="1px" opacity="0.25"></line><line x1="295.1428941999163" y1="0" x2="295.1428941999163" y2="176" fill="rgb(0, 0, 0)" stroke="rgb(66, 66, 66)" stroke-width="1px" opacity="0.25"></line></g><g><line x1="0" y1="159.92600845601515" x2="298.40625" y2="159.92600845601515" fill="rgb(0, 0, 0)" stroke="rgb(66, 66, 66)" stroke-width="1px" opacity="0.25"></line><line x1="0" y1="143.6485518086163" x2="298.40625" y2="143.6485518086163" fill="rgb(0, 0, 0)" stroke="rgb(66, 66, 66)" stroke-width="1px" opacity="0.25"></line><line x1="0" y1="127.37109516121747" x2="298.40625" y2="127.37109516121747" fill="rgb(0, 0, 0)" stroke="rgb(66, 66, 66)" stroke-width="1px" opacity="0.25"></line><line x1="0" y1="111.09363851381863" x2="298.40625" y2="111.09363851381863" fill="rgb(0, 0, 0)" stroke="rgb(66, 66, 66)" stroke-width="1px" opacity="0.25"></line><line x1="0" y1="94.8161818664198" x2="298.40625" y2="94.8161818664198" fill="rgb(0, 0, 0)" stroke="rgb(66, 66, 66)" stroke-width="1px" opacity="0.25"></line><line x1="0" y1="78.53872521902095" x2="298.40625" y2="78.53872521902095" fill="rgb(0, 0, 0)" stroke="rgb(66, 66, 66)" stroke-width="1px" opacity="0.25"></line><line x1="0" y1="62.26126857162211" x2="298.40625" y2="62.26126857162211" fill="rgb(0, 0, 0)" stroke="rgb(66, 66, 66)" stroke-width="1px" opacity="0.25"></line><line x1="0" y1="45.983811924223275" x2="298.40625" y2="45.983811924223275" fill="rgb(0, 0, 0)" stroke="rgb(66, 66, 66)" stroke-width="1px" opacity="0.25"></line><line x1="0" y1="29.706355276824418" x2="298.40625" y2="29.706355276824418" fill="rgb(0, 0, 0)" stroke="rgb(66, 66, 66)" stroke-width="1px" opacity="0.25"></line><line x1="0" y1="13.428898629425582" x2="298.40625" y2="13.428898629425582" fill="rgb(0, 0, 0)" stroke="rgb(66, 66, 66)" stroke-width="1px" opacity="0.25"></line></g></g></g><g><g><line x1="0" y1="159.92600845601515" x2="298.40625" y2="159.92600845601515" fill="rgb(0, 0, 0)" stroke="rgb(153, 153, 153)" stroke-width="1.5px"></line></g></g><g><g><line x1="39.71302795410156" y1="0" x2="39.71302795410156" y2="176" fill="rgb(0, 0, 0)" stroke="rgb(153, 153, 153)" stroke-width="1.5px"></line></g></g><g><g><g><g><g><path stroke="rgb(51, 187, 238)" stroke-width="2px" d="M40.777319063459124,159.92600845601515L41.84161017281669,159.92600845601515L42.90590128217424,159.92600845601515L43.9701923915318,159.92600845601515L45.034483500889365,159.92600845601515L46.09877461024693,159.92600845601515L47.16306571960449,159.92600845601515L48.22735682896205,159.92600845601515L49.29164793831961,159.92600845601515L50.355939047677175,159.92600845601515L51.42023015703474,159.92600845601515L52.4845212663923,159.92600845601515L53.54881237574986,159.92600845601515L54.61310348510742,159.92600845601515L55.67739459446498,159.92600845601515L56.74168570382254,159.92600845601515L57.8059768131801,159.92600845601515L58.870267922537664,159.92600845601515L59.934559031895226,159.92600845601515L60.99885014125279,159.92600845601515L62.06314125061035,159.92600845601515L63.12743235996791,159.92600845601515L64.19172346932547,159.92600845601515L65.25601457868304,159.92600845601515L66.32030568804059,159.92600845601515L67.38459679739816,159.92600845601515L68.44888790675571,159.92600845601515L69.51317901611327,159.92600845601515L70.57747012547084,159.92600845601515L71.6417612348284,159.92600845601515L72.70605234418596,159.92600845601515L73.77034345354352,159.92600845601515L74.83463456290107,159.92600845601515L75.89892567225864,159.92600845601515L76.9632167816162,159.92600845601515L78.02750789097377,159.92600845601515L79.09179900033132,159.92600845601515L80.15609010968889,159.92600845601515L81.22038121904644,159.92600845601515L82.28467232840401,159.92600845601515L83.34896343776157,159.92600845601515L84.41325454711914,159.92600845601515L85.47754565647669,159.92600845601515L86.54183676583426,159.92600845601515L87.60612787519182,159.92600845601515L88.67041898454939,159.92600845601515L89.73471009390694,159.92600845601515L90.79900120326451,159.92600845601515L91.86329231262206,159.92600845601515L92.92758342197963,159.92600845601515L93.99187453133719,159.92600845601515L95.05616564069476,159.92600845601515L96.12045675005231,159.92600845601515L97.18474785940988,159.92600845601515L98.24903896876744,159.92600845601515L99.31333007812499,159.92600845601515L100.37762118748255,159.92600845601515L101.44191229684012,159.92600845601515L102.50620340619767,159.92600845601515L103.57049451555524,159.92600845601515L104.6347856249128,159.92600845601515L105.69907673427036,158.78840943875173L106.76336784362792,159.04323164796318L107.82765895298549,159.24097367063732L108.89195006234304,159.39442147320273L109.95624117170061,159.5134969637603L111.02053228105817,159.6058995418839L112.08482339041575,156.2575148173235L113.1491144997733,157.0792574130535L114.21340560913087,156.57933078847537L115.27769671848843,155.05014263221355L116.341987827846,156.14233658957858L117.40627893720355,156.98987909538837L118.47057004656111,157.64757207682237L119.53486115591866,155.87909788541555L120.59915226527623,154.50676191674677L121.66344337463379,153.44182920738598L122.72773448399136,152.61544142632277L123.79202559334891,154.2530084442343L124.85631670270648,152.10367143072727L125.92060781206403,151.5770309931245L126.9848989214216,152.30960309704705L128.04919003077916,154.01567789868767L129.1134811401367,148.50306014853305L130.1777722494943,147.64171155620943L131.24206335885185,142.41561753362996L132.3063544682094,142.91785608755058L133.37064557756696,139.89115042556423L134.43493668692454,138.68367191447666L135.4992277962821,140.02186628711985L136.56351890563965,136.50261760624548L137.6278100149972,137.19176929537298L138.6921011243548,134.30646234081905L139.75639223371235,134.3499539609067L140.8206833430699,128.6847705144368L141.88497445242746,127.70503128695135L142.949265561785,125.80715445023893L144.01355667114257,131.17093381698325L145.07784778050015,123.9390069522211L146.1421388898577,118.32703170520159L147.20642999921526,116.25098284418904L148.27072110857281,115.78121366252147L149.3350122179304,115.41667277754853L150.39930332728795,113.99254431634087L151.4635944366455,110.60857669980365L152.5278855460031,109.12021633009942L153.59217665536065,110.2477388475925L154.6564677647182,111.12269632116644L155.72075887407576,102.68628829355494L156.7850499834333,101.83492202613036L157.8493410927909,102.31186030333235L158.91363220214842,107.23965296316275L159.977923311506,106.50593151046894L161.04221442086356,109.35665302372874L162.10650553022114,111.56881291801801L163.17079663957867,103.03247477271871L164.23508774893625,97.5458748726897L165.2993788582938,98.98355971226226L166.3636699676514,103.51929250831991L167.42796107700892,105.90142196188992L168.4922521863665,105.46746425348147L169.55654329572405,106.27195850166987L170.62083440508164,103.47980360690556L171.68512551443916,94.4729126874701L172.74941662379675,96.59894105653173L173.8137077331543,92.55345270892926L174.8779988425119,92.83424311173893L175.9422899518694,96.46857889567765L177.006581061227,93.58989017282907L178.07087217058455,89.0808307224535L179.13516327994213,87.85699759040713L180.19945438929966,82.34961521866748L181.26374549865722,81.49597585874666L182.3280366080148,76.27586385417641L183.39232771737235,75.64514629917905L184.4566188267299,71.73562011595196L185.52090993608746,64.14413993649606L186.58520104544505,60.5319952478741L187.6494921548026,58.87021500852083L188.71378326416016,57.580673542782684L189.7780743735177,57.71758925698837L190.8423654828753,61.24392521176115L191.90665659223285,59.422672660497156L192.9709477015904,56.868136641698996L194.03523881094796,58.30225912246996L195.09952992030554,57.13993977520721L196.1638210296631,61.93326771462148L197.22811213902065,59.957602442716805L198.2924032483782,52.72555429142976L199.3566943577358,47.11348492603098L200.42098546709335,46.17496292073588L201.4852765764509,48.866757814280064L202.54956768580846,47.53550268201715L203.61385879516604,48.78493677741584L204.6781499045236,46.33440966579203L205.74244101388112,43.295200735553465L206.8067321232387,45.49446246696L207.87102323259626,46.059845531514135L208.93531434195384,44.21973885897232L209.99960545131137,42.79181608107985L211.06389656066895,41.68374800543532L212.1281876700265,37.40379920908197L213.1924787793841,38.64024680438344L214.25676988874162,39.59973013833737L215.3210609980992,43.76437717513883L216.38535210745675,48.1337417764193L217.44964321681434,44.69148245340021L218.51393432617186,43.157889110355896L219.57822543552945,47.66310703814774L220.642516544887,47.74271371875581L221.70680765424459,47.804488502907695L222.7710987636021,52.410113596681214L223.8353898729597,52.56763484719514L224.89968098231725,46.99093943730493L225.96397209167483,44.942267729865975L227.02826320103236,44.490098376511824L228.09255431038994,40.72277113605468L229.1568454197475,37.799325197459936L230.22113652910502,36.67197518812774L231.2854276384626,33.514663502851285L232.34971874782016,36.76352153536579L233.41400985717775,31.310503685071026L234.4783009665353,30.49540565549661L235.54259207589286,27.584045653911037L236.6068831852504,32.161362084588134L237.671174294608,30.014427734504565L238.73546540396555,30.630894756874387L239.7997565133231,34.525716988487716L240.86404762268066,37.548099040219654L241.92833873203824,36.477023690109306L242.9926298413958,39.06231304067798L244.05692095075335,35.369565676430284L245.1212120601109,38.202925622063084L246.1855031694685,35.843925078602446L247.24979427882604,34.013340656876984L248.3140853881836,32.59280714561804L249.37837649754115,30.349229101863767L250.44266760689874,37.72358687155785L251.5069587162563,33.19311427757455L252.57124982561385,28.539867653025006L253.6355409349714,34.04432399491793L254.69983204432896,34.89569414657366L255.76412315368654,34.41875749264002L256.82841426304407,34.04865464918749L257.8927053724017,36.03665462590532L258.9569964817592,34.16289878558405L260.0212875911168,38.40779615378375L261.08557870047434,37.14414865023504L262.1498698098319,36.16355818748123L263.21416091918945,35.402619988384274L264.278452028547,33.67088790686772L265.34274313790456,31.185819772593497L266.4070342472622,32.67749487004989L267.4713253566197,36.113878676311906L268.5356164659773,33.0815806096822L269.59990757533484,31.869761348994892L270.6641986846924,29.7881455636842L271.72848979404995,28.172811714283107L272.7927809034075,26.919312647147866L273.85707201276506,28.229085449085574L274.92136312212267,30.383069035007757L275.98565423148017,34.33340422831919L277.0499453408378,31.699932438039852L278.11423645019534,30.79760236780043L279.1785275595529,33.51383805554897L280.24281866891045,33.34643716600485L281.307109778268,35.49173385895561L282.37140088762555,31.461196339795222L283.4356919969831,37.448874947470124L284.49998310634066,38.67522557737264L285.5642742156982,35.06918580490533L286.62856532505583,33.41214298048805L287.69285643441333,26.42734584845123L288.75714754377094,26.706075174279647L289.8214386531285,25.781125092105164L290.88572976248605,23.925763936719264L291.9500208718436,27.04369154141149L293.01431198120116,28.325603471034157L294.0786030905587,29.32036712842134L295.1428941999163,30.09230372655379L296.2071853092738,27.27123855705139L297.27147641863144,29.63977984678924L298.335767527989,32.61536777924429L299.40005863734655,33.786824123210906" style="fill: none;" fill="none"></path></g></g></g></g><g opacity="0.2"><g><g><g><path stroke="rgb(51, 187, 238)" stroke-width="2px" d="M40.777319063459124,159.92600845601515L41.84161017281669,159.92600845601515L42.90590128217424,159.92600845601515L43.9701923915318,159.92600845601515L45.034483500889365,159.92600845601515L46.09877461024693,159.92600845601515L47.16306571960449,159.92600845601515L48.22735682896205,159.92600845601515L49.29164793831961,159.92600845601515L50.355939047677175,159.92600845601515L51.42023015703474,159.92600845601515L52.4845212663923,159.92600845601515L53.54881237574986,159.92600845601515L54.61310348510742,159.92600845601515L55.67739459446498,159.92600845601515L56.74168570382254,159.92600845601515L57.8059768131801,159.92600845601515L58.870267922537664,159.92600845601515L59.934559031895226,159.92600845601515L60.99885014125279,159.92600845601515L62.06314125061035,159.92600845601515L63.12743235996791,159.92600845601515L64.19172346932547,159.92600845601515L65.25601457868304,159.92600845601515L66.32030568804059,159.92600845601515L67.38459679739816,159.92600845601515L68.44888790675571,159.92600845601515L69.51317901611327,159.92600845601515L70.57747012547084,159.92600845601515L71.6417612348284,159.92600845601515L72.70605234418596,159.92600845601515L73.77034345354352,159.92600845601515L74.83463456290107,159.92600845601515L75.89892567225864,159.92600845601515L76.9632167816162,159.92600845601515L78.02750789097377,159.92600845601515L79.09179900033132,159.92600845601515L80.15609010968889,159.92600845601515L81.22038121904644,159.92600845601515L82.28467232840401,159.92600845601515L83.34896343776157,159.92600845601515L84.41325454711914,159.92600845601515L85.47754565647669,159.92600845601515L86.54183676583426,159.92600845601515L87.60612787519182,159.92600845601515L88.67041898454939,159.92600845601515L89.73471009390694,159.92600845601515L90.79900120326451,159.92600845601515L91.86329231262206,159.92600845601515L92.92758342197963,159.92600845601515L93.99187453133719,159.92600845601515L95.05616564069476,159.92600845601515L96.12045675005231,159.92600845601515L97.18474785940988,159.92600845601515L98.24903896876744,159.92600845601515L99.31333007812499,159.92600845601515L100.37762118748255,159.92600845601515L101.44191229684012,159.92600845601515L102.50620340619767,159.92600845601515L103.57049451555524,159.92600845601515L104.6347856249128,159.92600845601515L105.69907673427036,154.84744216830745L106.76336784362792,159.92600845601515L107.82765895298549,159.92600845601515L108.89195006234304,159.92600845601515L109.95624117170061,159.92600845601515L111.02053228105817,159.92600845601515L112.08482339041575,144.65775393447433L113.1491144997733,159.92600845601515L114.21340560913087,154.84744216830745L115.27769671848843,149.7525980513909L116.341987827846,159.92600845601515L117.40627893720355,159.92600845601515L118.47057004656111,159.92600845601515L119.53486115591866,149.7525980513909L120.59915226527623,149.7525980513909L121.66344337463379,149.7525980513909L122.72773448399136,149.7525980513909L123.79202559334891,159.92600845601515L124.85631670270648,144.65775393447433L125.92060781206403,149.7525980513909L126.9848989214216,154.84744216830745L128.04919003077916,159.92600845601515L129.1134811401367,129.40577724214234L130.1777722494943,144.65775393447433L131.24206335885185,124.31093467756502L132.3063544682094,144.65775393447433L133.37064557756696,129.40577724214234L134.43493668692454,134.50062135905887L135.4992277962821,144.65775393447433L136.56351890563965,124.31093467756502L137.6278100149972,139.5791876467666L138.6921011243548,124.31093467756502L139.75639223371235,134.50062135905887L140.8206833430699,109.05895643289377L141.88497445242746,124.31093467756502L142.949265561785,119.23236683751806L144.01355667114257,149.7525980513909L145.07784778050015,98.88554602826952L146.1421388898577,98.88554602826952L147.20642999921526,109.05895643289377L148.27072110857281,114.15379899747107L149.3350122179304,114.15379899747107L150.39930332728795,109.05895643289377L151.4635944366455,98.88554602826952L152.5278855460031,103.96411076363799L153.59217665536065,114.15379899747107L154.6564677647182,114.15379899747107L155.72075887407576,73.46016048365244L156.7850499834333,98.88554602826952L157.8493410927909,103.96411076363799L158.91363220214842,124.31093467756502L159.977923311506,103.96411076363799L161.04221442086356,119.23236683751806L162.10650553022114,119.23236683751806L163.17079663957867,73.46016048365244L164.23508774893625,78.53872521902095L165.2993788582938,103.96411076363799L166.3636699676514,119.23236683751806L167.42796107700892,114.15379899747107L168.4922521863665,103.96411076363799L169.55654329572405,109.05895643289377L170.62083440508164,93.80698129290101L171.68512551443916,63.2704691451409L172.74941662379675,103.96411076363799L173.8137077331543,78.53872521902095L174.8779988425119,93.80698129290101L175.9422899518694,109.05895643289377L177.006581061227,83.61728995438945L178.07087217058455,73.46016048365244L179.13516327994213,83.61728995438945L180.19945438929966,63.2704691451409L181.26374549865722,78.53872521902095L182.3280366080148,58.1919044097724L183.39232771737235,73.46016048365244L184.4566188267299,58.1919044097724L185.52090993608746,37.845083600523836L186.58520104544505,48.01849400514813L187.6494921548026,53.11333346504696L188.71378326416016,53.11333346504696L189.7780743735177,58.1919044097724L190.8423654828753,73.46016048365244L191.90665659223285,53.11333346504696L192.9709477015904,48.01849400514813L194.03523881094796,63.2704691451409L195.09952992030554,53.11333346504696L196.1638210296631,78.53872521902095L197.22811213902065,53.11333346504696L198.2924032483782,27.671673195899565L199.3566943577358,27.671673195899565L200.42098546709335,42.92365454524927L201.4852765764509,58.1919044097724L202.54956768580846,42.92365454524927L203.61385879516604,53.11333346504696L204.6781499045236,37.845083600523836L205.74244101388112,32.76651265579842L206.8067321232387,53.11333346504696L207.87102323259626,48.01849400514813L208.93531434195384,37.845083600523836L209.99960545131137,37.845083600523836L211.06389656066895,37.845083600523836L212.1281876700265,22.57683373600073L213.1924787793841,42.92365454524927L214.25676988874162,42.92365454524927L215.3210609980992,58.1919044097724L216.38535210745675,63.2704691451409L217.44964321681434,32.76651265579842L218.51393432617186,37.845083600523836L219.57822543552945,63.2704691451409L220.642516544887,48.01849400514813L221.70680765424459,48.01849400514813L222.7710987636021,68.36531481439667L223.8353898729597,53.11333346504696L224.89968098231725,27.671673195899565L225.96397209167483,37.845083600523836L227.02826320103236,42.92365454524927L228.09255431038994,27.671673195899565L229.1568454197475,27.671673195899565L230.22113652910502,32.76651265579842L231.2854276384626,22.57683373600073L232.34971874782016,48.01849400514813L233.41400985717775,12.419691846549854L234.4783009665353,27.671673195899565L235.54259207589286,17.49826279127529L236.6068831852504,48.01849400514813L237.671174294608,22.57683373600073L238.73546540396555,32.76651265579842L239.7997565133231,48.01849400514813L240.86404762268066,48.01849400514813L241.92833873203824,32.76651265579842L242.9926298413958,48.01849400514813L244.05692095075335,22.57683373600073L245.1212120601109,48.01849400514813L246.1855031694685,27.671673195899565L247.24979427882604,27.671673195899565L248.3140853881836,27.671673195899565L249.37837649754115,22.57683373600073L250.44266760689874,63.2704691451409L251.5069587162563,17.49826279127529L252.57124982561385,12.419691846549854L253.6355409349714,53.11333346504696L254.69983204432896,37.845083600523836L255.76412315368654,32.76651265579842L256.82841426304407,32.76651265579842L257.8927053724017,42.92365454524927L258.9569964817592,27.671673195899565L260.0212875911168,53.11333346504696L261.08557870047434,32.76651265579842L262.1498698098319,32.76651265579842L263.21416091918945,32.76651265579842L264.278452028547,27.671673195899565L265.34274313790456,22.57683373600073L266.4070342472622,37.845083600523836L267.4713253566197,48.01849400514813L268.5356164659773,22.57683373600073L269.59990757533484,27.671673195899565L270.6641986846924,22.57683373600073L271.72848979404995,22.57683373600073L272.7927809034075,22.57683373600073L273.85707201276506,32.76651265579842L274.92136312212267,37.845083600523836L275.98565423148017,48.01849400514813L277.0499453408378,22.57683373600073L278.11423645019534,27.671673195899565L279.1785275595529,42.92365454524927L280.24281866891045,32.76651265579842L281.307109778268,42.92365454524927L282.37140088762555,17.49826279127529L283.4356919969831,58.1919044097724L284.49998310634066,42.92365454524927L285.5642742156982,22.57683373600073L286.62856532505583,27.671673195899565L287.69285643441333,2.2300129267521633L288.75714754377094,27.671673195899565L289.8214386531285,22.57683373600073L290.88572976248605,17.49826279127529L291.9500208718436,37.845083600523836L293.01431198120116,32.76651265579842L294.0786030905587,32.76651265579842L295.1428941999163,32.76651265579842L296.2071853092738,17.49826279127529L297.27147641863144,37.845083600523836L298.335767527989,42.92365454524927L299.40005863734655,37.845083600523836" style="fill: none;" fill="none"></path></g></g></g></g></g></g><g transform="translate(31, 176)" clip-path="url(#clip_1)"><clipPath id="clip_1"><rect width="298" height="24"></rect></clipPath><g><g><line x1="18.427205766950333" y1="0" x2="18.427205766950333" y2="5" style="visibility: inherit;" fill="rgb(0, 0, 0)" stroke="rgb(204, 204, 204)" stroke-width="1px"></line><line x1="39.71302795410156" y1="0" x2="39.71302795410156" y2="5" style="visibility: inherit;" fill="rgb(0, 0, 0)" stroke="rgb(204, 204, 204)" stroke-width="1px"></line><line x1="60.99885014125279" y1="0" x2="60.99885014125279" y2="5" style="visibility: inherit;" fill="rgb(0, 0, 0)" stroke="rgb(204, 204, 204)" stroke-width="1px"></line><line x1="82.28467232840401" y1="0" x2="82.28467232840401" y2="5" style="visibility: inherit;" fill="rgb(0, 0, 0)" stroke="rgb(204, 204, 204)" stroke-width="1px"></line><line x1="103.57049451555524" y1="0" x2="103.57049451555524" y2="5" style="visibility: inherit;" fill="rgb(0, 0, 0)" stroke="rgb(204, 204, 204)" stroke-width="1px"></line><line x1="124.85631670270648" y1="0" x2="124.85631670270648" y2="5" style="visibility: inherit;" fill="rgb(0, 0, 0)" stroke="rgb(204, 204, 204)" stroke-width="1px"></line><line x1="146.1421388898577" y1="0" x2="146.1421388898577" y2="5" style="visibility: inherit;" fill="rgb(0, 0, 0)" stroke="rgb(204, 204, 204)" stroke-width="1px"></line><line x1="167.42796107700892" y1="0" x2="167.42796107700892" y2="5" style="visibility: inherit;" fill="rgb(0, 0, 0)" stroke="rgb(204, 204, 204)" stroke-width="1px"></line><line x1="188.71378326416016" y1="0" x2="188.71378326416016" y2="5" style="visibility: inherit;" fill="rgb(0, 0, 0)" stroke="rgb(204, 204, 204)" stroke-width="1px"></line><line x1="209.99960545131137" y1="0" x2="209.99960545131137" y2="5" style="visibility: inherit;" fill="rgb(0, 0, 0)" stroke="rgb(204, 204, 204)" stroke-width="1px"></line><line x1="231.2854276384626" y1="0" x2="231.2854276384626" y2="5" style="visibility: inherit;" fill="rgb(0, 0, 0)" stroke="rgb(204, 204, 204)" stroke-width="1px"></line><line x1="252.57124982561385" y1="0" x2="252.57124982561385" y2="5" style="visibility: inherit;" fill="rgb(0, 0, 0)" stroke="rgb(204, 204, 204)" stroke-width="1px"></line><line x1="273.85707201276506" y1="0" x2="273.85707201276506" y2="5" style="visibility: inherit;" fill="rgb(0, 0, 0)" stroke="rgb(204, 204, 204)" stroke-width="1px"></line><line x1="295.1428941999163" y1="0" x2="295.1428941999163" y2="5" style="visibility: inherit;" fill="rgb(0, 0, 0)" stroke="rgb(204, 204, 204)" stroke-width="1px"></line></g><g transform="translate(0, 8)"><text x="18.427205766950333" y="0" dx="0em" dy="0.95em" style="text-anchor: middle; visibility: inherit; font-family: Roboto, sans-serif; font-size: 12px; font-weight: 200;" fill="rgb(33, 33, 33)" stroke="none" stroke-width="1px">-100k</text><text x="39.71302795410156" y="0" dx="0em" dy="0.95em" style="text-anchor: middle; visibility: hidden; font-family: Roboto, sans-serif; font-size: 12px; font-weight: 200;" fill="rgb(33, 33, 33)" stroke="none" stroke-width="1px">0</text><text x="60.99885014125279" y="0" dx="0em" dy="0.95em" style="text-anchor: middle; visibility: inherit; font-family: Roboto, sans-serif; font-size: 12px; font-weight: 200;" fill="rgb(33, 33, 33)" stroke="none" stroke-width="1px">100k</text><text x="82.28467232840401" y="0" dx="0em" dy="0.95em" style="text-anchor: middle; visibility: hidden; font-family: Roboto, sans-serif; font-size: 12px; font-weight: 200;" fill="rgb(33, 33, 33)" stroke="none" stroke-width="1px">200k</text><text x="103.57049451555524" y="0" dx="0em" dy="0.95em" style="text-anchor: middle; visibility: inherit; font-family: Roboto, sans-serif; font-size: 12px; font-weight: 200;" fill="rgb(33, 33, 33)" stroke="none" stroke-width="1px">300k</text><text x="124.85631670270648" y="0" dx="0em" dy="0.95em" style="text-anchor: middle; visibility: hidden; font-family: Roboto, sans-serif; font-size: 12px; font-weight: 200;" fill="rgb(33, 33, 33)" stroke="none" stroke-width="1px">400k</text><text x="146.1421388898577" y="0" dx="0em" dy="0.95em" style="text-anchor: middle; visibility: inherit; font-family: Roboto, sans-serif; font-size: 12px; font-weight: 200;" fill="rgb(33, 33, 33)" stroke="none" stroke-width="1px">500k</text><text x="167.42796107700892" y="0" dx="0em" dy="0.95em" style="text-anchor: middle; visibility: hidden; font-family: Roboto, sans-serif; font-size: 12px; font-weight: 200;" fill="rgb(33, 33, 33)" stroke="none" stroke-width="1px">600k</text><text x="188.71378326416016" y="0" dx="0em" dy="0.95em" style="text-anchor: middle; visibility: inherit; font-family: Roboto, sans-serif; font-size: 12px; font-weight: 200;" fill="rgb(33, 33, 33)" stroke="none" stroke-width="1px">700k</text><text x="209.99960545131137" y="0" dx="0em" dy="0.95em" style="text-anchor: middle; visibility: hidden; font-family: Roboto, sans-serif; font-size: 12px; font-weight: 200;" fill="rgb(33, 33, 33)" stroke="none" stroke-width="1px">800k</text><text x="231.2854276384626" y="0" dx="0em" dy="0.95em" style="text-anchor: middle; visibility: inherit; font-family: Roboto, sans-serif; font-size: 12px; font-weight: 200;" fill="rgb(33, 33, 33)" stroke="none" stroke-width="1px">900k</text><text x="252.57124982561385" y="0" dx="0em" dy="0.95em" style="text-anchor: middle; visibility: hidden; font-family: Roboto, sans-serif; font-size: 12px; font-weight: 200;" fill="rgb(33, 33, 33)" stroke="none" stroke-width="1px">1M</text><text x="273.85707201276506" y="0" dx="0em" dy="0.95em" style="text-anchor: middle; visibility: inherit; font-family: Roboto, sans-serif; font-size: 12px; font-weight: 200;" fill="rgb(33, 33, 33)" stroke="none" stroke-width="1px">1.1M</text><text x="295.1428941999163" y="0" dx="0em" dy="0.95em" style="text-anchor: middle; visibility: hidden; font-family: Roboto, sans-serif; font-size: 12px; font-weight: 200;" fill="rgb(33, 33, 33)" stroke="none" stroke-width="1px">1.2M</text></g><line x1="0" y1="0" x2="298.40625" y2="0" fill="rgb(0, 0, 0)" stroke="rgb(204, 204, 204)" stroke-width="1px"></line></g></g></g></g></svg>