<svg viewBox="0 0 330 200" xmlns="http://www.w3.org/2000/svg"><g><g><g><g><g><line x1="53.1875" y1="176" x2="48.1875" y2="176" style="visibility: inherit;" fill="rgb(0, 0, 0)" stroke="rgb(204, 204, 204)" stroke-width="1px"></line><line x1="53.1875" y1="154" x2="48.1875" y2="154" style="visibility: inherit;" fill="rgb(0, 0, 0)" stroke="rgb(204, 204, 204)" stroke-width="1px"></line><line x1="53.1875" y1="132" x2="48.1875" y2="132" style="visibility: inherit;" fill="rgb(0, 0, 0)" stroke="rgb(204, 204, 204)" stroke-width="1px"></line><line x1="53.1875" y1="110" x2="48.1875" y2="110" style="visibility: inherit;" fill="rgb(0, 0, 0)" stroke="rgb(204, 204, 204)" stroke-width="1px"></line><line x1="53.1875" y1="88" x2="48.1875" y2="88" style="visibility: inherit;" fill="rgb(0, 0, 0)" stroke="rgb(204, 204, 204)" stroke-width="1px"></line><line x1="53.1875" y1="66" x2="48.1875" y2="66" style="visibility: inherit;" fill="rgb(0, 0, 0)" stroke="rgb(204, 204, 204)" stroke-width="1px"></line><line x1="53.1875" y1="44" x2="48.1875" y2="44" style="visibility: inherit;" fill="rgb(0, 0, 0)" stroke="rgb(204, 204, 204)" stroke-width="1px"></line><line x1="53.1875" y1="22" x2="48.1875" y2="22" style="visibility: inherit;" fill="rgb(0, 0, 0)" stroke="rgb(204, 204, 204)" stroke-width="1px"></line><line x1="53.1875" y1="0" x2="48.1875" y2="0" style="visibility: inherit;" fill="rgb(0, 0, 0)" stroke="rgb(204, 204, 204)" stroke-width="1px"></line></g><g transform="translate(43.1875, 0)"><text x="0" y="176" dx="0em" dy="0.3em" style="text-anchor: end; visibility: hidden; font-family: Roboto, sans-serif; font-size: 12px; font-weight: 200;" fill="rgb(33, 33, 33)" stroke="none" stroke-width="1px">-100</text><text x="0" y="154" dx="0em" dy="0.3em" style="text-anchor: end; visibility: inherit; font-family: Roboto, sans-serif; font-size: 12px; font-weight: 200;" fill="rgb(33, 33, 33)" stroke="none" stroke-width="1px">-50</text><text x="0" y="132" dx="0em" dy="0.3em" style="text-anchor: end; visibility: hidden; font-family: Roboto, sans-serif; font-size: 12px; font-weight: 200;" fill="rgb(33, 33, 33)" stroke="none" stroke-width="1px">0</text><text x="0" y="110" dx="0em" dy="0.3em" style="text-anchor: end; visibility: inherit; font-family: Roboto, sans-serif; font-size: 12px; font-weight: 200;" fill="rgb(33, 33, 33)" stroke="none" stroke-width="1px">50</text><text x="0" y="88" dx="0em" dy="0.3em" style="text-anchor: end; visibility: hidden; font-family: Roboto, sans-serif; font-size: 12px; font-weight: 200;" fill="rgb(33, 33, 33)" stroke="none" stroke-width="1px">100</text><text x="0" y="66" dx="0em" dy="0.3em" style="text-anchor: end; visibility: inherit; font-family: Roboto, sans-serif; font-size: 12px; font-weight: 200;" fill="rgb(33, 33, 33)" stroke="none" stroke-width="1px">150</text><text x="0" y="44" dx="0em" dy="0.3em" style="text-anchor: end; visibility: hidden; font-family: Roboto, sans-serif; font-size: 12px; font-weight: 200;" fill="rgb(33, 33, 33)" stroke="none" stroke-width="1px">200</text><text x="0" y="22" dx="0em" dy="0.3em" style="text-anchor: end; visibility: inherit; font-family: Roboto, sans-serif; font-size: 12px; font-weight: 200;" fill="rgb(33, 33, 33)" stroke="none" stroke-width="1px">250</text><text x="0" y="0" dx="0em" dy="0.3em" style="text-anchor: end; visibility: hidden; font-family: Roboto, sans-serif; font-size: 12px; font-weight: 200;" fill="rgb(33, 33, 33)" stroke="none" stroke-width="1px">300</text></g><line x1="53.1875" y1="0" x2="53.1875" y2="176" fill="rgb(0, 0, 0)" stroke="rgb(204, 204, 204)" stroke-width="1px"></line></g></g><g transform="translate(53, 0)" clip-path="url(#clip_0)"><clipPath id="clip_0"><rect width="276" height="175"></rect></clipPath><g><g><g><line x1="0" y1="0" x2="0" y2="176" fill="rgb(0, 0, 0)" stroke="rgb(66, 66, 66)" stroke-width="1px" opacity="0.25"></line><line x1="23.067708333333332" y1="0" x2="23.067708333333332" y2="176" fill="rgb(0, 0, 0)" stroke="rgb(66, 66, 66)" stroke-width="1px" opacity="0.25"></line><line x1="46.135416666666664" y1="0" x2="46.135416666666664" y2="176" fill="rgb(0, 0, 0)" stroke="rgb(66, 66, 66)" stroke-width="1px" opacity="0.25"></line><line x1="69.203125" y1="0" x2="69.203125" y2="176" fill="rgb(0, 0, 0)" stroke="rgb(66, 66, 66)" stroke-width="1px" opacity="0.25"></line><line x1="92.27083333333333" y1="0" x2="92.27083333333333" y2="176" fill="rgb(0, 0, 0)" stroke="rgb(66, 66, 66)" stroke-width="1px" opacity="0.25"></line><line x1="115.33854166666667" y1="0" x2="115.33854166666667" y2="176" fill="rgb(0, 0, 0)" stroke="rgb(66, 66, 66)" stroke-width="1px" opacity="0.25"></line><line x1="138.40625" y1="0" x2="138.40625" y2="176" fill="rgb(0, 0, 0)" stroke="rgb(66, 66, 66)" stroke-width="1px" opacity="0.25"></line><line x1="161.47395833333334" y1="0" x2="161.47395833333334" y2="176" fill="rgb(0, 0, 0)" stroke="rgb(66, 66, 66)" stroke-width="1px" opacity="0.25"></line><line x1="184.54166666666666" y1="0" x2="184.54166666666666" y2="176" fill="rgb(0, 0, 0)" stroke="rgb(66, 66, 66)" stroke-width="1px" opacity="0.25"></line><line x1="207.609375" y1="0" x2="207.609375" y2="176" fill="rgb(0, 0, 0)" stroke="rgb(66, 66, 66)" stroke-width="1px" opacity="0.25"></line><line x1="230.67708333333334" y1="0" x2="230.67708333333334" y2="176" fill="rgb(0, 0, 0)" stroke="rgb(66, 66, 66)" stroke-width="1px" opacity="0.25"></line><line x1="253.74479166666666" y1="0" x2="253.74479166666666" y2="176" fill="rgb(0, 0, 0)" stroke="rgb(66, 66, 66)" stroke-width="1px" opacity="0.25"></line><line x1="276.8125" y1="0" x2="276.8125" y2="176" fill="rgb(0, 0, 0)" stroke="rgb(66, 66, 66)" stroke-width="1px" opacity="0.25"></line></g><g><line x1="0" y1="176" x2="276.8125" y2="176" fill="rgb(0, 0, 0)" stroke="rgb(66, 66, 66)" stroke-width="1px" opacity="0.25"></line><line x1="0" y1="154" x2="276.8125" y2="154" fill="rgb(0, 0, 0)" stroke="rgb(66, 66, 66)" stroke-width="1px" opacity="0.25"></line><line x1="0" y1="132" x2="276.8125" y2="132" fill="rgb(0, 0, 0)" stroke="rgb(66, 66, 66)" stroke-width="1px" opacity="0.25"></line><line x1="0" y1="110" x2="276.8125" y2="110" fill="rgb(0, 0, 0)" stroke="rgb(66, 66, 66)" stroke-width="1px" opacity="0.25"></line><line x1="0" y1="88" x2="276.8125" y2="88" fill="rgb(0, 0, 0)" stroke="rgb(66, 66, 66)" stroke-width="1px" opacity="0.25"></line><line x1="0" y1="66" x2="276.8125" y2="66" fill="rgb(0, 0, 0)" stroke="rgb(66, 66, 66)" stroke-width="1px" opacity="0.25"></line><line x1="0" y1="44" x2="276.8125" y2="44" fill="rgb(0, 0, 0)" stroke="rgb(66, 66, 66)" stroke-width="1px" opacity="0.25"></line><line x1="0" y1="22" x2="276.8125" y2="22" fill="rgb(0, 0, 0)" stroke="rgb(66, 66, 66)" stroke-width="1px" opacity="0.25"></line><line x1="0" y1="0" x2="276.8125" y2="0" fill="rgb(0, 0, 0)" stroke="rgb(66, 66, 66)" stroke-width="1px" opacity="0.25"></line></g></g></g><g><g><line x1="0" y1="132" x2="276.8125" y2="132" fill="rgb(0, 0, 0)" stroke="rgb(153, 153, 153)" stroke-width="1.5px"></line></g></g><g><g><line x1="23.067708333333332" y1="0" x2="23.067708333333332" y2="176" fill="rgb(0, 0, 0)" stroke="rgb(153, 153, 153)" stroke-width="1.5px"></line></g></g><g><g><g><g><g><path stroke="rgb(51, 187, 238)" stroke-width="2px" d="M23.155365625,151.6774266052246L23.321453125,133.05847762930335L23.416030729166664,130.81024859418807L23.649014583333333,123.90741720388473L23.734365104166663,134.7144530333862L23.787420833333332,139.9617223496391L24.22570729166667,129.46936823914797L24.3041375,129.44712158546164L24.357193229166665,129.87750104924328L24.435623437500002,129.80776037672166L24.493292708333332,130.1463348590362L24.5740296875,129.92708726026544L24.668607291666667,129.58094697725556L24.749344270833333,134.4342523727061L24.908511458333333,131.58209581488964L25.028463541666667,130.66953666677986L25.13226822916667,138.17221950286296L25.185323958333335,137.26214665230998L25.8612078125,118.93963292011591L26.490956249999996,112.07981928279943L26.574,114.4854201438693L26.758541666666666,115.22006399195674L26.860039583333332,116.99403575601357L26.922322395833334,119.03523044978019L27.000752604166667,120.52635585973712L27.123011458333334,121.246552279883L27.215282291666664,122.23111250998468L27.279871875,124.83530600934522L27.870405208333334,117.59753712866286L27.932688020833336,119.45414599321161L28.034185937500002,120.53470021560626L28.693922395833336,111.91598917504908L28.92690625,111.62197289797331L29.132208854166667,111.35425697192134L29.372113020833332,110.07951070717681L29.462077083333334,115.48621795357481L29.552041145833332,127.25931101079749L29.671993229166667,126.86456196102242L29.773491145833336,126.93968321879626L29.842694270833334,128.5594223046297L29.9026703125,130.01781576443003L29.990327604166666,130.99761760624654L30.5393390625,122.92001250263641L30.917649479166666,119.21422585575164L31.012227083333332,128.092758361843L31.38823072916667,125.52176532004444L31.6742703125,122.39310914648694L32.488560416666665,110.4596235942774L32.60389895833333,112.58599937868588L32.68232916666667,114.88360920640989L33.201352604166665,111.11784304640261L33.538141145833336,110.36997634709331L33.591196875,115.57235808848772L33.6811609375,117.42581245420061L33.787272395833334,128.67832153378953L34.3455109375,122.08011543278174L34.42394114583333,122.99150257476036L34.58541510416667,122.13216267219414L34.774570312499996,121.61348340559134L35.1344265625,118.59015785798586L35.219777083333334,119.93998541015547L35.28436666666667,121.52216095570867L35.3697171875,125.52740395382381L35.967170833333334,119.0088327314415L36.04560104166667,120.3626615929678L36.165553124999995,121.12283784921244L36.22552916666667,122.50411526407103L36.70995104166666,117.24000391036363L36.7676203125,119.23953805010947L36.834516666666666,126.52297199291714L36.88065208333334,127.38801678440312L36.93601458333333,128.23071184689582L37.019058333333334,128.3906525383384L37.09056822916667,128.6612916321481L37.540388541666665,124.04227529863354L37.611898437499995,130.0501831728685L37.69032864583333,131.42263264324444L37.79644010416667,136.6921395800513L38.10093385416666,131.27529085993362L38.183977604166664,133.5331137170146L38.255487499999994,138.95124172029617L38.35467864583333,137.27769136491222L38.39850729166666,137.19737099163294L38.536913541666664,135.17623585307672L38.592276041666665,135.426954113037L38.6499453125,134.78763467411866L38.7191484375,134.16602297588926L39.10899270833334,128.8372175167616L39.189729687500005,128.8402392946172L39.48960989583333,125.59222327232045L39.56804010416666,126.4808921676298L39.6949125,125.77223426764435L39.74566145833334,126.61920633555917L39.83793229166667,126.78043155798446L39.89790833333333,127.40250208890598L39.990179166666664,135.68580315410526L40.07091614583333,135.3554035633196L40.241617187500005,132.12676096128658L40.31543385416667,133.56088202323L40.368489583333336,133.30892218311686L40.70989166666667,127.79926660196475L41.441138020833336,112.28938722506481L41.5149546875,114.67430742695385L41.77561979166667,113.52195520684671L41.8748109375,115.27554498786391L42.1239421875,114.69021671768166L42.188531770833336,116.983799664992L42.273882291666666,121.66570705225857L42.903630729166665,114.4875124391183L42.965913541666666,117.26128586533076L43.030503125,119.18005784704725L43.10431979166667,120.93178439841495L43.71792083333334,113.67146830432947L43.770976562499996,116.35797753107931L43.85171354166667,127.21929821759849L43.90476927083333,130.5283358678854L43.999346875,130.24546120367305L44.066243229166666,137.45145813159843L44.10545833333333,137.66434509477764L44.17696822916666,136.61967784785574L44.56219895833333,130.15346591179735L44.631402083333334,136.80391640447124L44.6775375,136.23259998493597L45.092756249999994,129.11260104662892L45.17118645833334,129.266215328068L45.24730989583334,129.2537816055733L45.351114583333334,128.95964857855986L45.4526125,138.09562008953708L45.51950885416667,142.4083847510625L46.14695052083333,132.06737285332366L46.2484484375,131.34717426569748L46.3384125,140.12114296857553L46.42145625,138.69838116295455L46.50219322916667,137.43288470264147L46.564476041666666,136.57036216502013L46.629065624999996,135.84365445425647L46.69826875,135.74245646967273L47.05351145833333,130.7333988223886L47.13886197916667,130.35212572520962L47.27034791666667,129.4099343089438L47.49871822916667,127.47883853496151L47.570228125,131.74474779041208L47.6325109375,135.12524757826438L48.01543489583333,129.10482554750877L48.24611197916667,126.89119052936735L48.45833489583334,124.74954526603881L48.9958125,119.50575537841964L49.048868229166665,121.19115903491722L49.94620208333333,119.39529326942119L50.21148072916667,117.47557845052224L50.262229687499996,122.76801921156678L50.32220572916666,126.23402566206931L50.389102083333334,132.54970291735353L50.45830520833333,136.29610147737515L50.529815104166666,135.37722408494767L50.615165625,134.5078157296947L50.684368750000004,133.85623159221936L50.75818541666667,138.29851482374713L50.8296953125,137.8158647373069L50.94272708333333,136.20006904265546L51.01885052083333,135.4145739991223L51.24722083333334,132.30171372691575L51.35333229166667,131.46742917562204L51.920797916666665,124.15330593594395L51.992307812499995,131.65267196549357L52.07073802083333,131.2910619496704L52.160702083333334,130.83000634351208L52.23913229166667,130.6110726088636L52.3244828125,135.95969586186803L52.57130729166667,132.3990856863225L52.753542187499995,130.7115164466413L52.8089046875,130.89731144010676L52.8919484375,130.62596460738507L53.48478854166667,123.07046749866223L54.01765260416666,108.59954010417769L54.14683177083333,110.93630891743896L54.31522604166667,112.00586890784992L54.37750885416666,114.837504086228L54.89191875,110.0639577385071L55.053392708333334,111.74810918313995L55.26100208333333,111.72432035751355L55.33481875,114.37446169731084L55.941499479166666,107.68057903480384L56.3659453125,106.40292913673325L56.46744322916666,109.14595829082234L56.63814427083334,109.96753134267117L57.05105625,107.72346586024483L57.12256614583333,110.84455280571923L57.2655859375,112.44426352491394L57.73386041666667,108.48987099779336L57.791529687499995,112.20911853433758L57.867653125000004,114.5097937634678L57.925322395833334,120.9395753954355L58.0268203125,121.77233285468678L58.63811458333333,114.92481174584285L58.73038541666667,116.68880490368004L58.84572395833334,117.4983710805098L58.93107447916667,122.58923225785747L59.011811458333334,126.24499070070028L59.12484322916667,134.34428677754448L59.30477135416667,132.26959726998834L59.440870833333335,130.89705598116456L59.503153645833336,131.18339566268668L59.680775000000004,128.8053641494293L59.759205208333334,128.9790740049563L59.8537828125,135.73773479956648L60.2551609375,128.76512140711642L60.31975052083334,129.17098625746797L60.5042921875,127.00683414936931L60.59886979166667,127.02668429084092L60.70036770833333,126.99732858635555L60.8364671875,126.0498064909161L60.896443229166664,126.79279898226949L61.03254270833333,126.24368560954031L61.10174583333333,126.9792617495029L61.17325572916667,131.42723220857667L62.04982864583333,118.78255074017817L62.573465625,114.37407902359709L62.6634296875,122.3521897517195L62.7257125,123.91233397378564L63.011752083333334,120.98141352054563L63.067114583333336,124.07979089006677L63.67610208333333,115.66606537199686L64.32199791666666,111.41567897535276L64.37736041666666,116.89807841751141L64.428109375,119.00306578970007L64.52038020833334,121.75018094654462L64.59189010416667,126.88075515227474L64.64033229166667,127.71561579955956L64.70953541666667,128.5154456410524L64.78565885416667,128.61914396193407L65.3623515625,121.92965337175742L66.00132708333334,115.348179405256L66.31274114583334,113.11680295101868L67.14548541666667,114.4386499945594L67.2446765625,116.39909366366815L67.32541354166666,123.23744078882746L67.39923020833334,125.11744276326766L67.90210625,137.0386599031334L68.3519265625,130.36889808943968L68.86172291666666,122.8246420698269L68.95168697916667,123.60147308062773L69.82825989583333,106.91551251431501L70.31268177083334,104.26418404368508L70.37496458333332,108.41983125231567L70.74404791666666,106.27063431578773L70.822478125,113.66734569194426L70.91244218749999,116.86414844207171L70.98625885416666,118.81148122663444L71.03239427083334,121.227105352421L71.12927864583334,122.32459654313985L72.38646875,108.84034084507896L72.88934479166666,105.43003434651924L72.96316145833333,114.2523635173604L73.0438984375,122.22783598454103L73.47526458333334,118.03872399551943L73.57214895833333,119.38900220826386L73.86972239583332,117.41104561551808L73.94123229166667,121.98434998077161L74.18113645833334,120.28542328602005L74.25264635416666,121.6389625251681L74.57098072916666,117.96778391129376L75.19150208333333,110.25018889098331L75.306840625,112.65535802518943L75.37143020833334,117.83099082133359L75.44755364583334,119.53879069696073L75.53751770833333,127.3950426002028L75.61364114583333,132.4812138537624L75.7012984375,137.3397269655528L76.0334734375,131.77525785252163L76.11421041666668,137.6781990389142L76.18110677083334,136.57207333835976L76.25953697916667,138.8973529635416L76.3518078125,138.9840514375743L77.25606197916667,134.73157411325195L77.34833281249999,138.89014470359976L77.44983072916666,144.749720620378L77.86966302083333,137.51202410929685L77.94117291666667,139.91694897041538L78.04036406249999,138.4269637137428L78.25028020833334,134.27676036721272L78.96307239583334,125.01064604238108L79.01382135416667,128.18400253384144L79.72661354166667,119.75669793090505L80.04956145833334,117.35692542406345L80.44863281250001,115.11139182515281L81.31597864583334,98.52043849939602L81.3897953125,102.84549372477592L81.60201822916667,104.16053538984823L81.70351614583333,108.3519576973439L82.07490625,114.35074633409646L82.2202328125,114.64085421536114L83.29518802083334,106.86284022979217L83.334403125,110.5075869372655L83.42206041666667,112.96464822937413L83.500490625,120.11825224969766L83.57430729166667,126.2894496904687L84.23635052083334,117.66263507021232L84.3101671875,120.17181826688835L84.5592984375,119.19869072874911L84.68155729166666,120.21116341558073L84.829190625,119.85887410117512L84.89608697916665,121.26255854291094L85.5143015625,114.36971483415725L85.57427760416667,116.63399123108047L85.82340885416666,116.04046846503599L86.23170729166667,112.73809366852537L86.28476302083332,117.27152199264027L86.58464322916667,115.72265320650676L86.63769895833333,120.05586717249057L87.38047916666666,103.85358899879563L87.45660260416668,107.48182364066979L88.05866979166666,103.25498267262206L88.15555416666668,106.69197604376645L88.91909531249999,92.85955719643682L89.74030572916666,89.02959701700613L89.81412239583334,95.53199779547437L90.05171979166666,97.87197174741124L90.22934114583333,100.10167554836141L90.52691458333334,100.12520355351124L91.24201354166667,94.95569603105756L91.98710052083332,90.87150287771127L92.03554270833334,97.24086914887488L92.16010833333334,101.28342657692735L92.6699046875,97.9205336653028L93.15663333333333,95.32448372715874L93.79560885416666,92.57439323383464L93.908640625,97.47367005041349L93.98015052083333,102.8383309226986L94.97898229166667,89.08327750085951L95.1196953125,94.06042632963774L95.20043229166666,99.00289113783032L95.97089375,86.19560617396878L96.815171875,81.56146162648048L97.6248484375,76.69601548188406L97.9708640625,79.73346311652328L99.14962395833334,71.17701439591444L99.80013333333333,63.21461739903272L100.51523229166666,63.25007731823807L100.57751510416666,76.48428178935626L100.801271875,81.39990959259009L101.50483697916667,78.65349137186655L101.714753125,83.4960767086893L102.39755729166667,82.33838825711898L102.9673296875,85.27007575526079L103.6870421875,75.24428147161743L104.38599375,72.22338407350304L104.65819270833333,78.57798688957189L104.94423229166667,82.58646609668702L105.6870125,72.78943524259714L106.08608385416666,75.27468315488689L106.20372916666666,83.52747358170305L106.79426249999999,82.71260633984487L107.62931354166666,73.12313647437792L108.05606614583333,75.84003173002532L109.41475416666667,65.4539390053428L110.23135104166667,58.20731079390287L110.65349010416666,62.683879306379986L111.71229791666667,52.45284523293964L112.09060833333332,58.67663546302931L113.52311302083334,49.118190380982696L113.72380208333333,57.83553653579342L114.57038697916667,50.90130850028689L114.99944635416666,57.77132599252632L115.9359953125,62.78565843280001L116.6141859375,56.43378103417597L117.32928489583334,50.07132388351147L118.11589375000001,43.60069173015843L118.84714010416667,38.34760724836758L119.45382083333332,43.923853364098875L120.2957921875,39.23461240347155L120.91862031250001,36.2339040088812L121.60603802083334,33.25038928255491L122.35343177083334,38.02629287857863L122.890909375,36.202646368529415L123.71673333333334,31.379695072376112L124.57715885416667,28.829685401651766L125.4583453125,31.55705539302919L126.19420520833333,27.90072965921846L126.92083802083334,26.54802486988787L127.20687760416666,37.65234315213971L127.80433125,36.171561744763785L128.5586453125,39.985331675791436L129.34294739583333,35.9371815481982L129.64744114583334,45.96665435044374L130.54246822916667,43.76946695432582L131.51361875,35.9326764224304L132.2264109375,33.438281628716474L132.6831515625,41.44511069106511L133.61047343750002,36.20161418684299L134.44783125,33.33465530803587L135.17907760416668,38.50315462585852L135.91032395833332,34.75381792241498L136.731534375,30.759196041013745L137.54813125,28.73535173174254L138.2886046875,28.21965390304203L139.13057604166667,32.213247008077815L139.73033645833334,33.89549256543447L140.22859895833335,32.531458686851785L140.80529166666668,38.67948154888624L141.45810781249997,36.50593305389866L142.35774843750002,34.19668409976319L142.72683177083334,42.910531851021624L143.42347656249999,38.88860236586827L144.067065625,37.60227460332116L145.118953125,35.62320520103764L145.73947447916666,34.12294348485613L146.38306354166667,33.174714007209154L147.06125416666666,31.245214875929754L147.61949270833333,36.72890867333665L147.8524765625,48.438737887808166L148.3645796875,45.47334127977683L148.98740781249998,42.05973540512027L149.42800104166665,49.98636583096431L150.09235104166666,51.42512181359015L150.69903177083336,47.19826911856167L151.4510390625,42.40432250771243L151.956221875,41.102764906069126L152.55136875000002,44.52405638673781L153.12344791666666,42.666225435333814L153.76703697916668,47.88704573123108L154.461375,49.40567963264662L155.10035052083333,45.09809410780054L155.859278125,41.15984204561508L156.51901458333333,37.913515438042154L157.077253125,35.92575870682714L157.6724,34.07838396923441L158.42440729166668,41.42780104654648L158.74966197916666,50.94496849657821L159.5893265625,52.98660859149623L160.30211874999998,47.480093429895454L160.97800260416665,43.15393790163607L161.52932083333334,40.3924131889483L162.32746354166667,37.79325378656827L162.86032760416666,36.81318535117767L163.70691250000002,33.61518010567451L164.26515104166668,33.45788154254339L164.94334166666667,30.105868790112275L165.7437911458333,27.467003384731992L166.61344375,24.68248636444954L167.1047859375,25.99237186330668L167.6930125,32.184984579092195L168.55805156250003,28.50246762958082L168.9317484375,38.391593363199924L169.95595468750003,33.40141170016826L170.56263541666667,31.62107537435756L171.22467864583334,30.80216406077401L171.82674583333335,30.59022778147292L172.43111979166667,30.576584571996612L173.09546979166666,29.762127700278143L173.69061666666664,36.657245647144066L174.47953229166666,34.720356979363885L174.987021875,34.22196088401258L175.540646875,32.85918128927449L176.24421197916666,31.981797439308494L176.84397239583333,31.36099921572802L177.4137447916667,39.12307607913635L177.98813072916667,37.91300346446354L178.50023385416665,43.70688408257354L179.0976875,41.020318240017694L179.77818489583333,38.20542686415227L180.4448416666667,36.44755685071382L181.35140260416665,32.76272105051538L181.990378125,30.23845032449374L182.80466822916668,27.79916363832466L183.27524947916666,28.58093482057604L183.87500989583333,36.02672029799641L184.357125,35.263600326355174L184.87845520833335,34.774941875010384L185.5635661458333,33.4411651210099L186.36632239583332,32.06029489160163L187.0491265625,30.950621839291088L187.66734114583332,32.181040878483145L188.17483072916667,32.52795350716499L188.6754,33.45924010040636L189.2497859375,31.811111061532902L189.84031927083333,30.718202321001293L190.50005572916666,28.80706747426104L191.11135000000002,27.196309500856316L191.7203375,26.574765326306625L192.36161979166667,25.88371919839139L192.97752760416665,26.164777170000576L193.50347135416666,26.426925798399786L193.99942708333333,27.993499895259127L194.5807333333333,26.724321112454824L195.13435833333332,26.864572001261095L195.67414270833333,28.021361767744025L196.22084739583335,28.600890035738544L196.79754010416667,28.817894772919317L197.48265104166668,28.200518620797006L198.16776197916667,27.224549200352897L198.8782473958333,26.72047674553705L199.43187239583332,28.07573445739957L199.95320260416668,27.840613349876705L200.53912239583332,28.603387056035828L201.05122552083333,29.45291669592067L201.61177083333334,29.817785272380103L202.18615677083332,28.90587957398701L202.81821197916665,29.518125020112016L203.3395421875,29.07894482871781L203.92315520833333,28.797740362272116L204.42833802083334,28.454921532604793L205.06731354166666,27.298888511350043L205.6370859375,27.272299591524334L206.19532447916666,28.091472671691125L206.67974635416667,36.90363826909317L207.30257447916665,36.77679475061695L207.88849427083335,36.21254353284466L208.37060937500002,34.82337204171577L208.91962083333334,35.587254266027635L209.42480364583332,34.424661083572275L210.27600208333334,31.553098675133466L210.89652343749998,29.32962935333288L211.4501484375,28.8468446396991L212.0014666666667,28.101880463784845L212.78115520833336,26.443294952121484L213.4132104166667,27.170301988566653L214.23672760416665,25.678663771921496L214.94490625,30.705564605280678L215.5746546875,30.225249863549983L216.13981354166668,30.496316460031156L216.65883697916667,31.345446463419833L217.17094010416668,31.452130449316016L217.7891546875,32.51983620162669L218.28972395833333,32.212935193965826L218.86641666666665,32.05720819138446L219.42004166666666,31.39758575290409L219.85371458333333,31.496027557005302L220.3635109375,30.992154546527857L220.70029947916666,40.88746426622067L221.24469739583333,38.69948155072088L221.82831041666668,37.08348993353006L222.45805885416667,36.15610321899986L222.94017395833333,35.11849863254518L223.53070729166666,34.52179971764095L224.17660312499999,33.630858444217964L224.79943125000003,33.28833827574511L225.30230729166666,32.12606060551419L225.77058177083336,32.2189524885987L226.34958125,31.94555925967569L226.95626197916667,30.724858588010434L227.5191140625,29.346037270155882L228.2665078125,29.38560064880832L228.88472239583334,29.414139077569267L229.45910833333332,29.53865000189065L230.0934703125,28.5675822780927L230.7439796875,37.46540662726542L231.35988749999999,35.81596052965953L231.91581927083334,33.83998511418138L232.58708958333335,32.487913889853125L233.18685000000002,31.49819985952974L233.81890520833335,30.704809285598106L234.27564583333336,30.814776361916582L234.737,30.36515118601347L235.2975453125,30.203707258559938L235.89269218750002,29.812990172276365L236.40940885416668,29.25784355810533L236.9861015625,29.91057014190759L237.50051145833334,29.826590427704893L238.017228125,30.28773915256544L238.60776145833333,29.996281856403748L239.17522708333334,30.0190723593939L239.70809114583335,29.42911915300065L240.31015833333333,29.03514265518668L240.62157239583334,40.944066961094954L241.13598229166666,39.46728322149593L241.6503921875,38.56263723249218L242.26168645833332,36.61237502607227L242.82915208333333,35.68868895445503L243.36662968750002,37.09103504720769L243.857971875,36.38070790294073L244.41159687500001,35.91800148685385L244.94215416666668,35.23162564309621L245.6226515625,32.80680513402811L246.1901171875,31.608491976745846L246.709140625,30.94133861651431L247.26737916666667,31.678079068594208L247.8671395833333,30.617148779475627L248.4046171875,31.091247834724214L248.91672031250002,31.093889763505153L249.44497083333334,31.41016846748148L250.04242447916667,31.84446380233263L250.6467984375,31.598385571967533L251.17504895833332,30.641028593186725L251.83478541666665,31.68443770552575L252.37456979166666,30.90305377522428L252.83592395833332,31.683340820243473L253.3549473958333,31.30885751312416L253.96393489583335,31.154571657545045L254.40914166666667,31.985044464358168L254.985834375,32.02453213391006L255.56483385416666,31.98176092034832L256.1738213541667,31.75863562507616L256.7943427083333,31.22128561681853L257.31336614583336,30.337761237369786L257.9546484375,30.105596961508212L258.49212604166667,30.38482533822868L259.07112552083333,30.392505221073286L259.79083802083335,36.04379756419178L260.33292916666664,35.1595273175152L260.8519526041667,34.922182564447986L261.5163026041667,32.95545652136374L262.16681197916665,31.362341501783806L262.6350864583333,31.342515819412817L263.24407395833333,30.600256250519323L263.77463124999997,30.52553918272252L264.3074953125,29.482447143428598" style="fill: none;" fill="none"></path></g></g></g></g><g opacity="0.2"><g><g><g><path stroke="rgb(51, 187, 238)" stroke-width="2px" d="M23.155365625,151.6774266052246L23.321453125,117.02756256103515L23.416030729166664,127.20786399841307L23.649014583333333,108.44094436645507L23.734365104166663,164.86776031494142L23.787420833333332,157.08526031494142L24.22570729166667,90.9548568725586L24.3041375,129.35765686035157L24.357193229166665,131.73824840068815L24.435623437500002,129.4881014251709L24.493292708333332,131.77400640487673L24.5740296875,128.8308069038391L24.668607291666667,127.79272869110108L24.749344270833333,160.20078674316406L24.908511458333333,116.08887161254883L25.028463541666667,125.61574256896972L25.13226822916667,180.40675079345704L25.185323958333335,132.06764153659344L25.8612078125,13.119648437499997L26.490956249999996,72.06223266601563L26.574,128.63937881469727L26.758541666666666,119.5742322540283L26.860039583333332,127.57412727355958L26.922322395833334,131.2743647623062L27.000752604166667,129.50831562042237L27.123011458333334,125.60181716918946L27.215282291666664,128.20517833709718L27.279871875,140.68269111633302L27.870405208333334,73.44373168945313L27.932688020833336,130.80453594207765L28.034185937500002,127.15280189514161L28.693922395833336,59.045440673828125L28.92690625,109.81591583251954L29.132208854166667,109.70783767700195L29.372113020833332,102.23211944580078L29.462077083333334,148.79884429931639L29.552041145833332,199.85130859375L29.671993229166667,124.42901535034179L29.773491145833336,127.4034255218506L29.842694270833334,138.5632033920288L29.9026703125,139.02876350402832L29.990327604166666,137.0536201477051L30.5393390625,72.97854797363281L30.917649479166666,96.29649017333983L31.012227083333332,183.01262084960936L31.38823072916667,109.61533905029297L31.6742703125,103.03328521728517L32.488560416666665,36.60584350585937L32.60389895833333,125.74729618072512L32.68232916666667,129.1062678527832L33.201352604166665,87.80488830566406L33.538141145833336,105.7397508239746L33.591196875,147.78374450683592L33.6811609375,128.9024398803711L33.787272395833334,198.3575671386719L34.3455109375,81.22009185791016L34.42394114583333,128.63556365966798L34.58541510416667,116.81025146484374L34.774570312499996,118.4012030029297L35.1344265625,99.86567932128906L35.219777083333334,128.30009437561034L35.28436666666667,131.32148053169252L35.3697171875,150.33454238891602L35.967170833333334,78.63445404052734L36.04560104166667,128.74802827835083L36.165553124999995,125.83127490997313L36.22552916666667,131.0596464252472L36.70995104166666,84.6342510986328L36.7676203125,131.62467048645019L36.834516666666666,171.63686584472657L36.88065208333334,132.74616472244264L36.93601458333333,133.45044445991516L37.019058333333334,129.38134359359742L37.09056822916667,130.33766620635984L37.540388541666665,95.43140167236328L37.611898437499995,167.26413757324218L37.69032864583333,139.9238227081299L37.79644010416667,169.332431640625L38.10093385416666,97.72229064941406L38.183977604166664,147.51851821899413L38.255487499999994,172.51223999023438L38.35467864583333,126.91136745452881L38.39850729166666,136.69984928131103L38.536913541666664,122.6568808746338L38.592276041666665,136.97995895385742L38.6499453125,130.82754551887513L38.7191484375,130.31561797142027L39.10899270833334,95.82936614990234L39.189729687500005,128.8589568901062L39.48960989583333,105.47325057983397L39.56804010416666,131.9855168968439L39.6949125,121.3826392364502L39.74566145833334,131.86555299997332L39.83793229166667,127.77909912109375L39.89790833333333,131.25575612545012L39.990179166666664,186.99456176757815L40.07091614583333,133.30882885932922L40.241617187500005,112.12776885986328L40.31543385416667,142.44417488098145L40.368489583333336,131.74822187662124L40.70989166666667,93.67112304687501L41.441138020833336,16.217426757812497L41.5149546875,129.44708305358887L41.77561979166667,106.38400512695313L41.8748109375,126.13770713806153L42.1239421875,111.06455078125L42.188531770833336,131.19081162929535L42.273882291666666,150.666583404541L42.903630729166665,70.0240234375L42.965913541666666,134.4427155303955L43.030503125,131.06539999961853L43.10431979166667,131.78240647554398L43.71792083333334,68.699296875L43.770976562499996,132.99887206077577L43.85171354166667,194.49697265625002L43.90476927083333,151.02532379150392L43.999346875,128.49326639175416L44.066243229166666,182.0871646118164L44.10545833333333,138.983018989563L44.17696822916666,130.14875350952147L44.56219895833333,90.10016815185546L44.631402083333334,177.9984329223633L44.6775375,132.69372637748717L45.092756249999994,85.00958648681642L45.17118645833334,130.21773975372312L45.24730989583334,129.17676408767701L45.351114583333334,127.1377166748047L45.4526125,194.68606201171875L45.51950885416667,169.12270385742187L46.14695052083333,68.01261596679689L46.2484484375,126.88608806610107L46.3384125,194.4692510986328L46.42145625,129.8854465484619L46.50219322916667,129.59409009933472L46.564476041666666,131.22768660068513L46.629065624999996,131.34224914550782L46.69826875,135.11561140060425L47.05351145833333,99.70607055664063L47.13886197916667,127.99042690277099L47.27034791666667,123.5737702178955L47.49871822916667,115.51715896606444L47.570228125,158.1688331604004L47.6325109375,156.06489013671876L48.01543489583333,91.81285888671876L48.24611197916667,113.17939376831055L48.45833489583334,111.48367065429687L48.9958125,87.02443817138672L49.048868229166665,131.63096153736115L49.94620208333333,108.27126144409179L50.21148072916667,105.58439529418945L50.262229687499996,155.5506918334961L50.32220572916666,147.70331741333007L50.389102083333334,171.67055267333984L50.45830520833333,159.5022105407715L50.529815104166666,129.68547275543213L50.615165625,129.12248771667478L50.684368750000004,129.82016006469726L50.75818541666667,165.81510375976563L50.8296953125,134.8262120437622L50.94272708333333,126.19143527984619L51.01885052083333,130.54902556419373L51.24722083333334,113.0198957824707L51.35333229166667,126.29966659545897L51.920797916666665,78.84783752441406L51.992307812499995,178.1055795288086L52.07073802083333,129.05116106033324L52.160702083333334,127.97411514282227L52.23913229166667,129.2549435043335L52.3244828125,169.09037658691406L52.57130729166667,110.34379531860353L52.753542187499995,120.2582997894287L52.8089046875,132.04817107588053L52.8919484375,128.9451759529114L53.48478854166667,76.26987030029298L54.01765260416666,18.96307617187501L54.14683177083333,125.41082653045656L54.31522604166667,118.63098510742189L54.37750885416666,132.37734501123427L54.89191875,80.49544403076172L55.053392708333334,122.18015518188477L55.26100208333333,111.57696655273438L55.33481875,130.7900853919983L55.941499479166666,66.21703247070313L56.3659453125,98.48885314941406L56.46744322916666,126.13695182800294L56.63814427083334,115.05655578613282L57.05105625,93.8231753540039L57.12256614583333,130.17732877731322L57.2655859375,122.35326301574707L57.73386041666667,83.99539642333986L57.791529687499995,135.24704751968383L57.867653125000004,128.76073888778689L57.925322395833334,160.76721557617188L58.0268203125,126.93063625335695L58.63811458333333,72.50959106445312L58.73038541666667,127.61541000366209L58.84572395833334,122.51302200317383L58.93107447916667,154.12327163696287L59.011811458333334,148.88965270996093L59.12484322916667,184.51330780029298L59.30477135416667,119.41846298217773L59.440870833333335,122.39519950866699L59.503153645833336,132.95705368995667L59.680775000000004,114.07525527954101L59.759205208333334,130.05507534027097L59.8537828125,177.6025329589844L60.2551609375,85.57504852294922L60.31975052083334,131.6850124168396L60.5042921875,113.60154663085937L60.59886979166667,127.14964092254638L60.70036770833333,126.81549217224122L60.8364671875,120.18062286376954L60.896443229166664,131.395076212883L61.03254270833333,122.84234306335449L61.10174583333333,131.53560028553008L61.17325572916667,158.97904922485353L62.04982864583333,40.45830078124999L62.573465625,87.06692687988281L62.6634296875,171.77055908203124L62.7257125,133.57624890327455L63.011752083333334,102.82657531738282L63.067114583333336,143.2718981933594L63.67610208333333,63.549391479492186L64.32199791666666,85.08774597167968L64.37736041666666,150.85740158081055L64.428109375,132.04187246203423L64.52038020833334,138.76648418426515L64.59189010416667,158.66078674316407L64.64033229166667,132.88694685935974L64.70953541666667,133.46978732109068L64.78565885416667,129.26147672653198L65.3623515625,80.4933123779297L66.00132708333334,74.58091979980469L66.31274114583334,99.29511138916016L67.14548541666667,122.62649391174315L67.2446765625,128.54256128311158L67.32541354166666,165.59583557128906L67.39923020833334,136.76263484954833L67.90210625,210.8815948486328L68.3519265625,89.05476196289064L68.86172291666666,76.09367492675781L68.95168697916667,128.41335437774657L69.82825989583333,3.5585913085937406L70.31268177083334,87.84120697021484L70.37496458333332,134.16092655181885L70.74404791666666,92.95798278808594L70.822478125,159.48438522338867L70.91244218749999,136.66592662811277L70.98625885416666,130.87373682022093L71.03239427083334,136.19007205963135L71.12927864583334,129.1227254295349L72.38646875,25.315562744140628L72.88934479166666,84.30576171875L72.96316145833333,168.90002838134765L73.0438984375,171.62986328125L73.47526458333334,92.09033966064453L73.57214895833333,127.75295574188233L73.86972239583332,105.15909866333008L73.94123229166667,150.31251586914064L74.18113645833334,109.76185577392577L74.25264635416666,130.0231156539917L74.57098072916666,95.22760559082032L75.19150208333333,62.445517578125006L75.306840625,127.55356395721435L75.37143020833334,149.89012634277344L75.44755364583334,130.1173208618164L75.53751770833333,176.05858856201172L75.61364114583333,163.9862026977539L75.7012984375,167.4345455932617L76.0334734375,97.3075750732422L76.11421041666668,174.24246063232422L76.18110677083334,129.72046018600463L76.25953697916667,153.30070373535156L76.3518078125,139.52108299255372L77.25606197916667,108.39068939208985L77.34833281249999,164.64934814453125L77.44983072916666,181.04536712646484L77.86966302083333,92.67996154785156L77.94117291666667,154.81364181518555L78.04036406249999,129.19763057708738L78.25028020833334,108.56938568115233L78.96307239583334,67.6140673828125L79.01382135416667,147.84054885864256L79.72661354166667,67.55591186523436L80.04956145833334,102.49214752197267L80.44863281250001,101.20200744628904L81.31597864583334,-4.24798461914062L81.3897953125,129.63594371795656L81.60201822916667,112.30622512817384L81.70351614583333,134.31465270996094L82.07490625,151.50871047973632L82.2202328125,116.43785339355469L83.29518802083334,58.68391906738281L83.334403125,133.0840395641327L83.42206041666667,128.18428688049318L83.500490625,164.4294253540039L83.57430729166667,164.5153561401367L84.23635052083334,64.22603515625L84.3101671875,135.7143127441406L84.5592984375,113.17090072631837L84.68155729166666,126.48266689300536L84.829190625,117.67670791625976L84.89608697916665,129.95732332229613L85.5143015625,71.67375488281249L85.57427760416667,130.65947308540345L85.82340885416666,112.36404327392579L86.23170729166667,92.2823764038086L86.28476302083332,145.35268592834473L86.58464322916667,106.12858108520508L86.63769895833333,146.89685440063477L87.38047916666666,3.4927148437499937L87.45660260416668,129.9559964942932L88.05866979166666,77.07289581298829L88.15555416666668,127.98155368804932L88.91909531249999,7.178171386718748L89.74030572916666,65.3058868408203L89.81412239583334,135.80945873260498L90.05171979166666,112.3663427734375L90.22934114583333,113.91300628662108L90.52691458333334,100.27094177246094L91.24201354166667,62.93450195312499L91.98710052083332,65.57301147460937L92.03554270833334,136.6942818069458L92.16010833333334,126.32401611328126L92.6699046875,77.08995239257813L93.15663333333333,79.24391540527343L93.79560885416666,75.53966003417969L93.908640625,127.82098903656006L93.98015052083333,136.06835258483886L94.97898229166667,3.8811120605468687L95.1196953125,124.89010360717774L95.20043229166666,129.61772710800173L95.97089375,6.864150390624998L96.815171875,52.85643676757813L97.6248484375,46.558251953124994L97.9708640625,98.54815673828125L99.14962395833334,18.17627807617187L99.80013333333333,13.893582763671866L100.51523229166666,63.469724731445304L100.57751510416666,158.46018142700194L100.801271875,111.84851058959963L101.50483697916667,61.64150512695313L101.714753125,113.49223480224609L102.39755729166667,75.1673828125L102.9673296875,103.42966522216797L103.6870421875,13.142059326171875L104.38599375,53.51120666503907L104.65819270833333,117.93995109558104L104.94423229166667,107.41596679687501L105.6870125,12.104229736328133L106.08608385416666,90.66891662597655L106.20372916666666,134.64727615356446L106.79426249999999,77.66511932373048L107.62931354166666,13.723614501953133L108.05606614583333,92.66914550781249L109.41475416666667,1.119940185546879L110.23135104166667,13.319923095703134L110.65349010416666,90.41283966064454L111.71229791666667,-10.920682373046866L112.09060833333332,97.22831451416016L113.52311302083334,-10.089156494140642L113.72380208333333,111.83291091918946L114.57038697916667,7.949003906249995L114.99944635416666,100.32589477539062L115.9359953125,93.84566009521484L116.6141859375,17.08869873046875L117.32928489583334,10.66070800781251L118.11589375000001,3.520013427734371L118.84714010416667,5.80871704101563L119.45382083333332,78.4644857788086L120.2957921875,10.188306884765618L120.91862031250001,17.646782226562493L121.60603802083334,14.769769287109371L122.35343177083334,67.60940795898438L122.890909375,24.906533813476557L123.71673333333334,1.5051550292968656L124.57715885416667,13.0343017578125L125.4583453125,48.45105224609376L126.19420520833333,5.252553710937502L126.92083802083334,18.169040527343746L127.20687760416666,106.4352067565918L127.80433125,26.999239501953134L128.5586453125,63.60875549316407L129.34294739583333,10.861949462890628L129.64744114583334,108.09166213989258L130.54246822916667,30.159550781249997L131.51361875,-12.610321044921875L132.2264109375,17.987390136718744L132.6831515625,91.04136840820311L133.61047343750002,3.7221142578125086L134.44783125,15.576010742187506L135.17907760416668,70.51810363769532L135.91032395833332,11.529509277343745L136.731534375,6.015531005859366L137.54813125,16.199165039062507L138.2886046875,25.025295410156254L139.13057604166667,56.950539550781244L139.73033645833334,44.315733032226554L140.22859895833335,24.08229919433593L140.80529166666668,76.76183898925781L141.45810781249997,23.04244201660157L142.35774843750002,19.892631225585944L142.72683177083334,96.88623626708986L143.42347656249999,13.975787353515617L144.067065625,29.63444580078125L145.118953125,23.364365234375L145.73947447916666,24.829955444335937L146.38306354166667,27.30114868164063L147.06125416666666,19.293425292968745L147.61949270833333,70.69624938964844L147.8524765625,120.9722843170166L148.3645796875,27.104949340820312L148.98740781249998,20.915025634765634L149.42800104166665,99.08585357666016L150.09235104166666,60.33712829589844L150.69903177083336,21.01610961914063L151.4510390625,12.709444580078134L151.956221875,33.040598754882815L152.55136875000002,65.71637268066405L153.12344791666666,31.15836608886719L153.76703697916668,80.22608367919922L154.461375,58.812469482421875L155.10035052083333,18.415855712890618L155.859278125,16.765345458984378L156.51901458333333,17.804974365234383L157.077253125,23.613107299804682L157.6724,22.635292968749994L158.42440729166668,86.9518881225586L158.74966197916666,109.89663162231446L159.5893265625,65.63302673339844L160.30211874999998,13.371391601562491L160.97800260416665,16.35667236328124L161.52932083333334,23.28685363769531L162.32746354166667,21.693424682617184L162.86032760416666,30.742401733398438L163.70691250000002,13.805953369140623L164.26515104166668,32.48353576660156L164.94334166666667,9.342681884765625L165.7437911458333,11.121225585937498L166.61344375,7.434506835937491L167.1047859375,34.10612304687499L167.6930125,70.54354248046874L168.55805156250003,5.692056884765623L168.9317484375,99.64725708007812L169.95595468750003,2.4910058593749937L170.56263541666667,20.59323669433594L171.22467864583334,25.729627075195303L171.82674583333335,29.277442626953132L172.43111979166667,30.4920751953125L173.09546979166666,24.717182617187497L173.69061666666664,79.36729278564454L174.47953229166666,22.722794799804692L174.987021875,31.134773559570306L175.540646875,24.417791137695314L176.24421197916666,26.547067260742182L176.84397239583333,27.515623168945304L177.4137447916667,87.20327880859375L177.98813072916667,30.41751770019532L178.50023385416665,79.59559783935546L179.0976875,24.37907226562499L179.77818489583333,20.769301147460933L180.4448416666667,25.558880004882816L181.35140260416665,9.937946777343747L181.990378125,14.602500000000006L182.80466822916668,12.689625244140622L183.27524947916666,33.423416748046876L183.87500989583333,82.14773681640625L184.357125,30.53664855957032L184.87845520833335,31.74807189941406L185.5635661458333,25.179425659179678L186.36632239583332,23.506846923828128L187.0491265625,24.077035522460932L187.66734114583332,39.80255737304688L188.17483072916667,34.67681518554688L188.6754,39.22785705566405L189.2497859375,21.60219665527343L189.84031927083333,23.948458251953134L190.50005572916666,16.969030761718756L191.11135000000002,17.21888061523437L191.7203375,22.72476867675782L192.36161979166667,21.60321044921875L192.97752760416665,27.905718994140617L193.50347135416666,28.050738525390617L193.99942708333333,37.69724304199218L194.5807333333333,18.86271728515625L195.13435833333332,27.73332031249999L195.67414270833333,35.186800537109384L196.22084739583335,32.19062988281251L196.79754010416667,30.162075195312504L197.48265104166668,24.376339721679695L198.16776197916667,21.179155883789072L198.8782473958333,23.598128662109374L199.43187239583332,36.47053222656251L199.95320260416668,26.384215698242187L200.53912239583332,33.328193969726556L201.05122552083333,34.71511108398437L201.61177083333334,32.077870483398435L202.18615677083332,23.25731262207031L202.81821197916665,33.31052307128907L203.3395421875,26.35855529785156L203.92315520833333,27.05589111328124L204.42833802083334,26.331417846679695L205.06731354166666,20.13813720703125L205.6370859375,27.10760131835938L206.19532447916666,33.165631103515636L206.67974635416667,91.48834747314453L207.30257447916665,35.99109497070313L207.88849427083335,32.71743347167969L208.37060937500002,26.218504028320304L208.91962083333334,40.318927612304684L209.42480364583332,27.223274536132806L210.27600208333334,13.765938720703119L210.89652343749998,15.556916503906255L211.4501484375,25.85635803222656L212.0014666666667,23.487390136718744L212.78115520833336,16.16961059570312L213.4132104166667,31.67356140136718L214.23672760416665,16.439091796874997L214.94490625,61.843417968749996L215.5746546875,27.250062866210946L216.13981354166668,32.17536926269531L216.65883697916667,36.605165405273446L217.17094010416668,32.112957153320316L217.7891546875,39.13346679687499L218.28972395833333,30.311915283203128L218.86641666666665,31.092597045898444L219.42004166666666,27.311723022460942L219.85371458333333,32.10580017089844L220.3635109375,27.871041870117182L220.70029947916666,102.18143310546876L221.24469739583333,25.14658142089844L221.82831041666668,27.073642578124996L222.45805885416667,30.411643066406256L222.94017395833333,28.691322021484382L223.53070729166666,30.82570068359376L224.17660312499999,28.11215026855468L224.79943125000003,31.16668457031249L225.30230729166666,24.926628417968743L225.77058177083336,32.79434753417969L226.34958125,30.252094726562497L226.95626197916667,23.163540039062504L227.5191140625,20.80528076171874L228.2665078125,29.630665893554685L228.88472239583334,29.590913085937505L229.45910833333332,30.309901123046878L230.0934703125,22.55255126953125L230.7439796875,92.58070709228517L231.35988749999999,25.598887939453128L231.91581927083334,21.600310058593745L232.58708958333335,24.11285400390625L233.18685000000002,25.367669067382806L233.81890520833335,25.79035400390625L234.27564583333336,31.49593933105468L234.737,27.580062866210938L235.2975453125,29.20368408203125L235.89269218750002,27.392792968750005L236.40940885416668,25.819129638671882L236.9861015625,33.95371826171874L237.50051145833334,29.306399536132805L238.017228125,33.144207153320316L238.60776145833333,28.19092407226563L239.17522708333334,30.16024230957031L239.70809114583335,25.774804687499994L240.31015833333333,26.594755859374995L240.62157239583334,114.71085708618163L241.13598229166666,30.319723510742193L241.6503921875,32.959038696289056L242.26168645833332,24.53197387695313L242.82915208333333,29.96715148925781L243.36662968750002,45.77750976562499L243.857971875,31.98076782226562L244.41159687500001,33.051884765625L244.94215416666668,30.980045776367184L245.6226515625,17.78687377929687L246.1901171875,24.185847167968753L246.709140625,26.808827514648435L247.26737916666667,36.24162963867188L247.8671395833333,24.045487060546876L248.4046171875,34.02793334960937L248.91672031250002,31.11025451660156L249.44497083333334,33.369276123046866L250.04242447916667,34.53459533691406L250.6467984375,30.07411682128906L251.17504895833332,24.710925292968742L251.83478541666665,38.147568969726564L252.37456979166666,26.062970581054678L252.83592395833332,36.516629638671866L253.3549473958333,28.989216308593747L253.96393489583335,30.19888732910156L254.40914166666667,37.12919616699219L254.985834375,32.269128417968744L255.56483385416666,31.71682556152343L256.1738213541667,30.37654296875001L256.7943427083333,27.892808227539067L257.31336614583336,24.864995117187497L257.9546484375,28.667514648437496L258.49212604166667,32.114434204101556L259.07112552083333,30.440076293945303L259.79083802083335,71.04928466796875L260.33292916666664,29.682141113281258L260.8519526041667,33.45201110839844L261.5163026041667,20.773074340820305L262.16681197916665,21.494197387695316L262.6350864583333,31.219710693359374L263.24407395833333,26.002518920898442L263.77463124999997,30.062723388671873L264.3074953125,23.021279907226557" style="fill: none;" fill="none"></path></g></g></g></g></g></g><g transform="translate(53, 176)" clip-path="url(#clip_1)"><clipPath id="clip_1"><rect width="276" height="23"></rect></clipPath><g><g><line x1="0" y1="0" x2="0" y2="5" style="visibility: inherit;" fill="rgb(0, 0, 0)" stroke="rgb(204, 204, 204)" stroke-width="1px"></line><line x1="23.067708333333332" y1="0" x2="23.067708333333332" y2="5" style="visibility: inherit;" fill="rgb(0, 0, 0)" stroke="rgb(204, 204, 204)" stroke-width="1px"></line><line x1="46.135416666666664" y1="0" x2="46.135416666666664" y2="5" style="visibility: inherit;" fill="rgb(0, 0, 0)" stroke="rgb(204, 204, 204)" stroke-width="1px"></line><line x1="69.203125" y1="0" x2="69.203125" y2="5" style="visibility: inherit;" fill="rgb(0, 0, 0)" stroke="rgb(204, 204, 204)" stroke-width="1px"></line><line x1="92.27083333333333" y1="0" x2="92.27083333333333" y2="5" style="visibility: inherit;" fill="rgb(0, 0, 0)" stroke="rgb(204, 204, 204)" stroke-width="1px"></line><line x1="115.33854166666667" y1="0" x2="115.33854166666667" y2="5" style="visibility: inherit;" fill="rgb(0, 0, 0)" stroke="rgb(204, 204, 204)" stroke-width="1px"></line><line x1="138.40625" y1="0" x2="138.40625" y2="5" style="visibility: inherit;" fill="rgb(0, 0, 0)" stroke="rgb(204, 204, 204)" stroke-width="1px"></line><line x1="161.47395833333334" y1="0" x2="161.47395833333334" y2="5" style="visibility: inherit;" fill="rgb(0, 0, 0)" stroke="rgb(204, 204, 204)" stroke-width="1px"></line><line x1="184.54166666666666" y1="0" x2="184.54166666666666" y2="5" style="visibility: inherit;" fill="rgb(0, 0, 0)" stroke="rgb(204, 204, 204)" stroke-width="1px"></line><line x1="207.609375" y1="0" x2="207.609375" y2="5" style="visibility: inherit;" fill="rgb(0, 0, 0)" stroke="rgb(204, 204, 204)" stroke-width="1px"></line><line x1="230.67708333333334" y1="0" x2="230.67708333333334" y2="5" style="visibility: inherit;" fill="rgb(0, 0, 0)" stroke="rgb(204, 204, 204)" stroke-width="1px"></line><line x1="253.74479166666666" y1="0" x2="253.74479166666666" y2="5" style="visibility: inherit;" fill="rgb(0, 0, 0)" stroke="rgb(204, 204, 204)" stroke-width="1px"></line><line x1="276.8125" y1="0" x2="276.8125" y2="5" style="visibility: inherit;" fill="rgb(0, 0, 0)" stroke="rgb(204, 204, 204)" stroke-width="1px"></line></g><g transform="translate(0, 8)"><text x="0" y="0" dx="0em" dy="0.95em" style="text-anchor: middle; visibility: hidden; font-family: Roboto, sans-serif; font-size: 12px; font-weight: 200;" fill="rgb(33, 33, 33)" stroke="none" stroke-width="1px">-10k</text><text x="23.067708333333332" y="0" dx="0em" dy="0.95em" style="text-anchor: middle; visibility: inherit; font-family: Roboto, sans-serif; font-size: 12px; font-weight: 200;" fill="rgb(33, 33, 33)" stroke="none" stroke-width="1px">0</text><text x="46.135416666666664" y="0" dx="0em" dy="0.95em" style="text-anchor: middle; visibility: hidden; font-family: Roboto, sans-serif; font-size: 12px; font-weight: 200;" fill="rgb(33, 33, 33)" stroke="none" stroke-width="1px">10k</text><text x="69.203125" y="0" dx="0em" dy="0.95em" style="text-anchor: middle; visibility: inherit; font-family: Roboto, sans-serif; font-size: 12px; font-weight: 200;" fill="rgb(33, 33, 33)" stroke="none" stroke-width="1px">20k</text><text x="92.27083333333333" y="0" dx="0em" dy="0.95em" style="text-anchor: middle; visibility: hidden; font-family: Roboto, sans-serif; font-size: 12px; font-weight: 200;" fill="rgb(33, 33, 33)" stroke="none" stroke-width="1px">30k</text><text x="115.33854166666667" y="0" dx="0em" dy="0.95em" style="text-anchor: middle; visibility: inherit; font-family: Roboto, sans-serif; font-size: 12px; font-weight: 200;" fill="rgb(33, 33, 33)" stroke="none" stroke-width="1px">40k</text><text x="138.40625" y="0" dx="0em" dy="0.95em" style="text-anchor: middle; visibility: hidden; font-family: Roboto, sans-serif; font-size: 12px; font-weight: 200;" fill="rgb(33, 33, 33)" stroke="none" stroke-width="1px">50k</text><text x="161.47395833333334" y="0" dx="0em" dy="0.95em" style="text-anchor: middle; visibility: inherit; font-family: Roboto, sans-serif; font-size: 12px; font-weight: 200;" fill="rgb(33, 33, 33)" stroke="none" stroke-width="1px">60k</text><text x="184.54166666666666" y="0" dx="0em" dy="0.95em" style="text-anchor: middle; visibility: hidden; font-family: Roboto, sans-serif; font-size: 12px; font-weight: 200;" fill="rgb(33, 33, 33)" stroke="none" stroke-width="1px">70k</text><text x="207.609375" y="0" dx="0em" dy="0.95em" style="text-anchor: middle; visibility: inherit; font-family: Roboto, sans-serif; font-size: 12px; font-weight: 200;" fill="rgb(33, 33, 33)" stroke="none" stroke-width="1px">80k</text><text x="230.67708333333334" y="0" dx="0em" dy="0.95em" style="text-anchor: middle; visibility: hidden; font-family: Roboto, sans-serif; font-size: 12px; font-weight: 200;" fill="rgb(33, 33, 33)" stroke="none" stroke-width="1px">90k</text><text x="253.74479166666666" y="0" dx="0em" dy="0.95em" style="text-anchor: middle; visibility: inherit; font-family: Roboto, sans-serif; font-size: 12px; font-weight: 200;" fill="rgb(33, 33, 33)" stroke="none" stroke-width="1px">100k</text><text x="276.8125" y="0" dx="0em" dy="0.95em" style="text-anchor: middle; visibility: hidden; font-family: Roboto, sans-serif; font-size: 12px; font-weight: 200;" fill="rgb(33, 33, 33)" stroke="none" stroke-width="1px">110k</text></g><line x1="0" y1="0" x2="276.8125" y2="0" fill="rgb(0, 0, 0)" stroke="rgb(204, 204, 204)" stroke-width="1px"></line></g></g></g></g></svg>